<svg width="21" height="18" viewBox="0 0 21 18" fill="none" xmlns="http://www.w3.org/2000/svg">
<path d="M13.0964 6.3335H16.0169C16.3452 6.3335 16.6476 6.52016 16.7858 6.82239L18.272 9.88905L19.5248 10.5291C19.8186 10.6802 20 10.9913 20 11.3202V14.3246C20 14.8135 19.6112 15.2135 19.136 15.2135H18.272" stroke="#1A141F" stroke-width="1.5" stroke-linecap="round" stroke-linejoin="round"/>
<path d="M14.8245 15.2222H13.0964" stroke="#1A141F" stroke-linecap="round" stroke-linejoin="round"/>
<path d="M16.5525 16.9999C17.5069 16.9999 18.2806 16.204 18.2806 15.2221C18.2806 14.2403 17.5069 13.4443 16.5525 13.4443C15.5981 13.4443 14.8245 14.2403 14.8245 15.2221C14.8245 16.204 15.5981 16.9999 16.5525 16.9999Z" stroke="#1A141F" stroke-width="1.5" stroke-linecap="round" stroke-linejoin="round"/>
<path d="M5.3201 16.9999C6.27448 16.9999 7.04816 16.204 7.04816 15.2221C7.04816 14.2403 6.27448 13.4443 5.3201 13.4443C4.36572 13.4443 3.59204 14.2403 3.59204 15.2221C3.59204 16.204 4.36572 16.9999 5.3201 16.9999Z" stroke="#1A141F" stroke-width="1.5" stroke-linecap="round" stroke-linejoin="round"/>
<path d="M18.2806 9.88867H15.6885" stroke="#1A141F" stroke-linecap="round" stroke-linejoin="round"/>
<path d="M3.59209 15.2222H2.72806C1.77763 15.2222 1 14.4222 1 13.4444V2.77778C1 1.8 1.77763 1 2.72806 1H11.3683C12.3188 1 13.0964 1.8 13.0964 2.77778V15.2222H7.0482" stroke="#1A141F" stroke-width="1.5" stroke-linecap="round" stroke-linejoin="round"/>
</svg>
