<svg width="23" height="23" viewBox="0 0 23 23" fill="none" xmlns="http://www.w3.org/2000/svg">
<path d="M11.5002 15.0933C13.485 15.0933 15.094 13.4843 15.094 11.4996C15.094 9.5148 13.485 7.90582 11.5002 7.90582C9.51547 7.90582 7.90649 9.5148 7.90649 11.4996C7.90649 13.4843 9.51547 15.0933 11.5002 15.0933Z" stroke="#F25C19" stroke-width="1.5" stroke-linecap="round" stroke-linejoin="round"/>
<path d="M16.2693 18.6873C14.668 19.75 12.7578 20.2475 10.8416 20.1009C8.92535 19.9543 7.11297 19.172 5.69201 17.8781C4.27105 16.5842 3.32288 14.8528 2.99797 12.9586C2.67305 11.0645 2.98999 9.11611 3.89849 7.42261C4.807 5.72911 6.25504 4.3875 8.01284 3.61068C9.77065 2.83385 11.7375 2.66629 13.6014 3.13459C15.4653 3.60289 17.1194 4.68022 18.3013 6.19564C19.4831 7.71106 20.1251 9.57777 20.1252 11.4996C20.1252 13.4844 19.4065 15.0933 17.6096 15.0933C15.8127 15.0933 15.094 13.4844 15.094 11.4996V7.90583" stroke="#F25C19" stroke-width="1.5" stroke-linecap="round" stroke-linejoin="round"/>
</svg>
