<svg width="21" height="21" viewBox="0 0 21 21" fill="none" xmlns="http://www.w3.org/2000/svg">
<path d="M7.58595 10.2387C8.26667 11.6304 9.39476 12.7534 10.7895 13.4278C10.8916 13.4761 11.0045 13.4971 11.1171 13.4886C11.2297 13.48 11.3381 13.4423 11.4317 13.3792L13.4854 12.0097C13.5763 11.9492 13.6808 11.9122 13.7895 11.9022C13.8982 11.8922 14.0077 11.9095 14.108 11.9525L17.9501 13.5991C18.0807 13.6546 18.1896 13.7509 18.2606 13.8737C18.3316 13.9964 18.3608 14.1389 18.3437 14.2797C18.2223 15.23 17.7587 16.1034 17.0396 16.7364C16.3206 17.3694 15.3955 17.7187 14.4375 17.7187C11.4787 17.7187 8.64104 16.5433 6.54884 14.4511C4.45664 12.3589 3.28125 9.5213 3.28125 6.56247C3.2813 5.60449 3.63053 4.67937 4.26356 3.96034C4.89658 3.24131 5.76999 2.77767 6.72025 2.65623C6.86102 2.63919 7.00352 2.66837 7.12628 2.73936C7.24903 2.81035 7.34539 2.91932 7.40083 3.04983L9.04888 6.89528C9.09151 6.99475 9.10888 7.10321 9.09944 7.21102C9.09001 7.31882 9.05406 7.42262 8.9948 7.51316L7.63009 9.59837C7.56798 9.69218 7.53126 9.80049 7.52352 9.91273C7.51579 10.025 7.53729 10.1373 7.58595 10.2387V10.2387Z" stroke="#F25C19" stroke-width="1.5" stroke-linecap="round" stroke-linejoin="round"/>
</svg>
