<svg width="14" height="14" viewBox="0 0 14 14" fill="none" xmlns="http://www.w3.org/2000/svg">
<path d="M12.32 9.8469C12.6058 9.56107 12.6058 9.10024 12.32 8.8144L7.41414 3.90857C7.36017 3.85449 7.29607 3.81159 7.2255 3.78232C7.15493 3.75304 7.07929 3.73798 7.00289 3.73798C6.92649 3.73798 6.85084 3.75304 6.78027 3.78232C6.70971 3.81159 6.6456 3.85449 6.59164 3.90857L1.67997 8.82023C1.39997 9.10023 1.39997 9.5669 1.67997 9.8469C1.7477 9.91481 1.82817 9.96868 1.91675 10.0054C2.00534 10.0422 2.10031 10.0611 2.19622 10.0611C2.29213 10.0611 2.3871 10.0422 2.47569 10.0054C2.56427 9.96868 2.64474 9.91481 2.71247 9.8469L6.99997 5.56523L11.2875 9.85274C11.5733 10.1327 12.0341 10.1327 12.32 9.8469Z" fill="white"/>
</svg>
