<svg width="25" height="25" viewBox="0 0 25 25" fill="none" xmlns="http://www.w3.org/2000/svg">
<path d="M21.875 8.59375V19.6181C21.875 19.8022 21.8018 19.9789 21.6716 20.1091C21.5414 20.2393 21.3647 20.3125 21.1806 20.3125H3.90625C3.69905 20.3125 3.50034 20.2302 3.35382 20.0837C3.20731 19.9372 3.125 19.7385 3.125 19.5312V6.25C3.125 6.0428 3.20731 5.84409 3.35382 5.69757C3.50034 5.55106 3.69905 5.46875 3.90625 5.46875H9.11458C9.28362 5.46875 9.4481 5.52358 9.58333 5.625L12.2917 7.65625C12.4269 7.75767 12.5914 7.8125 12.7604 7.8125H21.0938C21.301 7.8125 21.4997 7.89481 21.6462 8.04132C21.7927 8.18784 21.875 8.38655 21.875 8.59375Z" stroke="#F25C19" stroke-width="1.5" stroke-linecap="round" stroke-linejoin="round"/>
<path d="M10.1562 14.0625H14.8438" stroke="#F25C19" stroke-width="1.5" stroke-linecap="round" stroke-linejoin="round"/>
<path d="M12.5 11.7188V16.4062" stroke="#F25C19" stroke-width="1.5" stroke-linecap="round" stroke-linejoin="round"/>
</svg>
