<svg width="43" height="45" viewBox="0 0 43 45" fill="none" xmlns="http://www.w3.org/2000/svg">
<g clip-path="url(#clip0_159_6865)">
<path fill-rule="evenodd" clip-rule="evenodd" d="M21.4694 6.20996C17.1499 6.20996 13.1796 7.70396 10.0732 10.188L12.6466 12.69C15.0912 10.854 18.1425 9.73796 21.4694 9.73796C29.4284 9.73796 35.8801 16.074 35.8801 23.868C35.8801 31.662 29.4284 37.98 21.4694 37.98C18.1425 37.98 15.0912 36.882 12.6466 35.028L10.0732 37.548C13.1796 40.014 17.1499 41.508 21.4694 41.508C31.4135 41.508 39.4828 33.606 39.4828 23.868C39.4828 14.112 31.4135 6.20996 21.4694 6.20996Z" fill="white"/>
<path fill-rule="evenodd" clip-rule="evenodd" d="M8.0146 12.1136C5.16555 15.2276 3.43774 19.3496 3.43774 23.8676C3.43774 28.3676 5.16555 32.4896 8.0146 35.6216L8.76822 36.3416L11.2864 33.8576C8.67632 31.3016 7.04041 27.7736 7.04041 23.8676C7.04041 19.9616 8.67632 16.4156 11.2864 13.8596L8.76822 11.3936L8.0146 12.1136Z" fill="white"/>
<path fill-rule="evenodd" clip-rule="evenodd" d="M25.7706 25.5775L33.0127 32.6875L30.4762 35.1715L17.1316 22.1035L25.7706 25.5775Z" fill="white"/>
<path fill-rule="evenodd" clip-rule="evenodd" d="M12.4445 15.0479H18.2161H22.1128H25.0722C28.0315 15.0479 30.4762 17.4239 30.4762 20.3399C30.4762 23.2379 28.0315 25.6319 25.0722 25.6319H22.1128H20.7343L17.1316 22.1039H18.2161H22.1128H25.0722C26.0647 22.1039 26.8735 21.3119 26.8735 20.3399C26.8735 19.3679 26.0647 18.5759 25.0722 18.5759H22.1128H18.2161H16.0471V22.1039V25.6319C16.0655 27.5759 17.6646 29.1599 19.6682 29.1599V32.6879C15.6979 32.6699 12.4812 29.5379 12.4445 25.6679V25.6319V15.0479Z" fill="white"/>
</g>
<defs>
<clipPath id="clip0_159_6865">
<rect width="43" height="45" fill="white"/>
</clipPath>
</defs>
</svg>
