<svg width="193" height="45" viewBox="0 0 193 45" fill="none" xmlns="http://www.w3.org/2000/svg">
<path d="M130.027 6.786H127.895V11.502H127.141V6.228H130.027V6.786ZM131.516 9.414V11.502H130.762V6.228H132.545C133.041 6.228 133.427 6.372 133.721 6.66C134.016 6.948 134.144 7.344 134.144 7.812C134.144 8.298 134.016 8.676 133.721 8.982C133.427 9.27 133.041 9.414 132.545 9.414H131.516ZM131.516 8.856H132.545C132.821 8.856 133.041 8.766 133.188 8.568C133.335 8.37 133.409 8.118 133.409 7.83C133.409 7.524 133.335 7.272 133.188 7.074C133.041 6.876 132.821 6.786 132.545 6.786H131.516V8.856ZM136.405 8.82L136.534 9.198H136.552L137.545 6.228H138.353L136.773 10.584C136.644 10.89 136.497 11.142 136.332 11.322C136.166 11.484 135.927 11.574 135.596 11.574C135.56 11.574 135.486 11.574 135.431 11.556C135.357 11.556 135.302 11.556 135.284 11.538V10.998C135.302 10.998 135.357 11.016 135.413 11.016C135.468 11.016 135.523 11.016 135.56 11.016C135.725 11.016 135.835 10.962 135.909 10.872C136.001 10.764 136.074 10.62 136.129 10.422L136.24 10.134L134.641 6.228H135.468L136.405 8.82ZM142.618 11.502H141.883V6.786H139.806V11.502H139.052V6.228H142.618V11.502ZM147.231 11.502H146.496V6.786H144.419V11.502H143.666V6.228H147.231V11.502ZM150.742 10.17H149.014L148.628 11.502H147.856L149.529 6.228H150.246L151.9 11.502H151.128L150.742 10.17ZM149.198 9.576H150.577L149.897 7.272H149.878L149.198 9.576ZM155.411 9.144H154.896V11.502H154.143V6.228H154.896V8.55H155.337L156.771 6.228H157.672L155.981 8.73L157.801 11.502H156.881L155.411 9.144ZM161.661 9.594C161.661 10.206 161.477 10.71 161.146 11.052C160.833 11.394 160.374 11.574 159.822 11.574C159.271 11.574 158.848 11.394 158.517 11.052C158.205 10.71 158.039 10.206 158.039 9.594V8.136C158.039 7.524 158.205 7.02 158.517 6.678C158.848 6.318 159.289 6.156 159.822 6.156C160.374 6.156 160.815 6.318 161.146 6.678C161.477 7.02 161.661 7.524 161.661 8.136V9.594ZM160.907 8.136C160.907 7.668 160.815 7.326 160.631 7.092C160.429 6.84 160.172 6.732 159.822 6.732C159.492 6.732 159.234 6.84 159.05 7.092C158.867 7.326 158.775 7.668 158.775 8.136V9.594C158.775 10.062 158.867 10.404 159.05 10.638C159.234 10.89 159.492 10.998 159.822 10.998C160.172 10.998 160.429 10.89 160.631 10.638C160.815 10.404 160.907 10.062 160.907 9.594V8.136ZM163.462 6.228L164.712 10.53H164.749L165.998 6.228H166.973V11.502H166.237V9.468L166.293 7.452L166.274 7.434L164.969 11.502H164.491L163.186 7.452H163.168L163.241 9.468V11.502H162.488V6.228H163.462ZM171.568 11.502H170.833V6.786H168.756V11.502H168.002V6.228H171.568V11.502ZM175.079 10.17H173.351L172.965 11.502H172.193L173.847 6.228H174.582L176.218 11.502H175.465L175.079 10.17ZM173.535 9.576H174.895L174.233 7.272H174.196L173.535 9.576ZM180.391 11.502H179.637V9.162H177.578V11.502H176.825V6.228H177.578V8.604H179.637V6.228H180.391V11.502ZM184.232 6.228H184.986V11.502H184.232V7.65H184.214L182.174 11.502H181.42V6.228H182.174V10.062L182.192 10.08L184.232 6.228ZM188.828 6.228H189.581V11.502H188.828V7.65H188.809L186.769 11.502H186.015V6.228H186.769V10.062L186.787 10.08L188.828 6.228ZM188.846 4.716V4.734C188.846 5.022 188.772 5.256 188.57 5.436C188.386 5.616 188.129 5.706 187.817 5.706C187.486 5.706 187.228 5.616 187.045 5.436C186.861 5.256 186.769 5.022 186.787 4.734V4.716H187.339C187.339 4.878 187.375 5.004 187.449 5.112C187.541 5.22 187.651 5.256 187.817 5.256C187.964 5.256 188.074 5.22 188.147 5.112C188.221 5.004 188.258 4.878 188.258 4.716H188.846Z" fill="white"/>
<path fill-rule="evenodd" clip-rule="evenodd" d="M63.4694 6.21001C59.1499 6.21001 55.1796 7.70401 52.0732 10.188L54.6466 12.69C57.0912 10.854 60.1425 9.73801 63.4694 9.73801C71.4284 9.73801 77.8801 16.074 77.8801 23.868C77.8801 31.662 71.4284 37.98 63.4694 37.98C60.1425 37.98 57.0912 36.882 54.6466 35.028L52.0732 37.548C55.1796 40.014 59.1499 41.508 63.4694 41.508C73.4135 41.508 81.4828 33.606 81.4828 23.868C81.4828 14.112 73.4135 6.21001 63.4694 6.21001Z" fill="white"/>
<path fill-rule="evenodd" clip-rule="evenodd" d="M50.0146 12.114C47.1656 15.228 45.4377 19.35 45.4377 23.868C45.4377 28.368 47.1656 32.49 50.0146 35.622L50.7682 36.342L53.2864 33.858C50.6763 31.302 49.0404 27.774 49.0404 23.868C49.0404 19.962 50.6763 16.416 53.2864 13.86L50.7682 11.394L50.0146 12.114Z" fill="white"/>
<path fill-rule="evenodd" clip-rule="evenodd" d="M31.0455 32.688H41.8351V29.16H31.0455H31.0271C29.042 29.16 27.4244 27.576 27.4244 25.632H31.0455H41.8351V22.104H27.4244V18.576H41.8351V15.048H23.8218V25.614V25.632C23.8218 29.52 27.0568 32.688 31.0455 32.688Z" fill="white"/>
<path fill-rule="evenodd" clip-rule="evenodd" d="M85.0671 15.048H88.6698L94.0922 28.278L99.4962 15.048H103.099V32.688H99.4962V23.868L95.8935 32.688H92.2909L88.6698 23.868V32.688H85.0671V15.048Z" fill="white"/>
<path fill-rule="evenodd" clip-rule="evenodd" d="M110.304 32.688L121.112 20.538V32.688H124.715V15.048H121.112L110.304 27.198V15.048H106.702V32.688H110.304Z" fill="white"/>
<path fill-rule="evenodd" clip-rule="evenodd" d="M128.318 15.048H131.92V22.104H142.728V15.048H146.331V22.104V25.632V32.688H142.728V25.632H131.92V32.688H128.318V25.632V22.104V15.048Z" fill="white"/>
<path fill-rule="evenodd" clip-rule="evenodd" d="M164.362 15.048H167.965V18.576V22.104V25.632V32.688H164.362V25.632H153.518V32.688H149.915V22.104C149.915 18.198 153.15 15.048 157.139 15.048H164.362ZM153.518 22.104H157.139H164.362V18.576H157.139H157.12C155.135 18.576 153.518 20.142 153.518 22.104Z" fill="white"/>
<path fill-rule="evenodd" clip-rule="evenodd" d="M185.979 15.048H189.581V18.576V32.688H185.979V18.576H178.755H178.736C176.751 18.576 175.134 20.142 175.134 22.104V32.688H171.531V22.104C171.55 18.198 174.766 15.048 178.755 15.048H180.575H185.979Z" fill="white"/>
<path fill-rule="evenodd" clip-rule="evenodd" d="M9.48463 15.048H13.0873H20.2926V18.576H13.0873V32.688H9.48463V18.576H2.2793V15.048H9.48463Z" fill="white"/>
<path fill-rule="evenodd" clip-rule="evenodd" d="M67.7706 25.578L75.0127 32.688L72.4762 35.172L59.1316 22.104L67.7706 25.578Z" fill="white"/>
<path fill-rule="evenodd" clip-rule="evenodd" d="M54.4445 15.048H60.2161H64.1128H67.0722C70.0315 15.048 72.4762 17.424 72.4762 20.34C72.4762 23.238 70.0315 25.632 67.0722 25.632H64.1128H62.7343L59.1316 22.104H60.2161H64.1128H67.0722C68.0647 22.104 68.8735 21.312 68.8735 20.34C68.8735 19.368 68.0647 18.576 67.0722 18.576H64.1128H60.2161H58.0471V22.104V25.632C58.0655 27.576 59.6646 29.16 61.6682 29.16V32.688C57.6979 32.67 54.4812 29.538 54.4445 25.668V25.632V15.048Z" fill="white"/>
</svg>
