<svg xmlns="http://www.w3.org/2000/svg">
	<symbol id="buildings" width="20" height="22" viewBox="0 0 20 22" fill="none" xmlns="http://www.w3.org/2000/svg">
		<path d="M1.27234 18.5611H19.0848" stroke="currentColor" stroke-width="1.5" stroke-linecap="round" stroke-linejoin="round"/>
		<path d="M11.4504 18.5611V3.43605C11.4504 3.25371 11.3834 3.07885 11.2641 2.94991C11.1448 2.82098 10.983 2.74855 10.8143 2.74855H3.18035C3.01163 2.74855 2.84982 2.82098 2.73052 2.94991C2.61121 3.07885 2.54419 3.25371 2.54419 3.43605V18.5611" stroke="currentColor" stroke-width="1.5" stroke-linecap="round" stroke-linejoin="round"/>
		<path d="M17.812 18.561V8.93605C17.812 8.75371 17.745 8.57885 17.6257 8.44991C17.5064 8.32098 17.3446 8.24855 17.1759 8.24855H11.4504" stroke="currentColor" stroke-width="1.5" stroke-linecap="round" stroke-linejoin="round"/>
		<path d="M5.08887 6.18605H7.63351" stroke="currentColor" stroke-width="1.5" stroke-linecap="round" stroke-linejoin="round"/>
		<path d="M6.36108 11.6861H8.90573" stroke="currentColor" stroke-width="1.5" stroke-linecap="round" stroke-linejoin="round"/>
		<path d="M5.08887 15.1236H7.63351" stroke="currentColor" stroke-width="1.5" stroke-linecap="round" stroke-linejoin="round"/>
		<path d="M13.9951 15.1236H15.2674" stroke="currentColor" stroke-width="1.5" stroke-linecap="round" stroke-linejoin="round"/>
		<path d="M13.9951 11.6861H15.2674" stroke="currentColor" stroke-width="1.5" stroke-linecap="round" stroke-linejoin="round"/>
	</symbol>

	<symbol id="user-gear" width="19" height="20" viewBox="0 0 19 20" fill="none" xmlns="http://www.w3.org/2000/svg">
		<path d="M9.5 12.9688C11.1396 12.9688 12.4688 11.6571 12.4688 10.0391C12.4688 8.42104 11.1396 7.10938 9.5 7.10938C7.8604 7.10938 6.53125 8.42104 6.53125 10.0391C6.53125 11.6571 7.8604 12.9688 9.5 12.9688Z" stroke="currentColor" stroke-width="1.5" stroke-miterlimit="10"/>
		<path d="M4.73511 15.8526C5.18236 14.9848 5.86421 14.2561 6.70519 13.7471C7.54617 13.2382 8.51347 12.9688 9.50001 12.9688C10.4866 12.9687 11.4539 13.2381 12.2948 13.7471C13.1358 14.2561 13.8177 14.9848 14.2649 15.8526" stroke="currentColor" stroke-width="1.5" stroke-linecap="round" stroke-linejoin="round"/>
		<path d="M14.8438 6.52344C15.4996 6.52344 16.0312 5.99877 16.0312 5.35156C16.0312 4.70435 15.4996 4.17969 14.8438 4.17969C14.1879 4.17969 13.6562 4.70435 13.6562 5.35156C13.6562 5.99877 14.1879 6.52344 14.8438 6.52344Z" stroke="currentColor" stroke-width="1.5" stroke-linecap="round" stroke-linejoin="round"/>
		<path d="M14.8438 4.17969V3.30078" stroke="currentColor" stroke-width="1.5" stroke-linecap="round" stroke-linejoin="round"/>
		<path d="M13.8154 4.76562L13.0441 4.32617" stroke="currentColor" stroke-width="1.5" stroke-linecap="round" stroke-linejoin="round"/>
		<path d="M13.8154 5.9375L13.0441 6.37695" stroke="currentColor" stroke-width="1.5" stroke-linecap="round" stroke-linejoin="round"/>
		<path d="M14.8438 6.52344V7.40234" stroke="currentColor" stroke-width="1.5" stroke-linecap="round" stroke-linejoin="round"/>
		<path d="M15.8722 5.9375L16.6435 6.37695" stroke="currentColor" stroke-width="1.5" stroke-linecap="round" stroke-linejoin="round"/>
		<path d="M15.8722 4.76562L16.6435 4.32617" stroke="currentColor" stroke-width="1.5" stroke-linecap="round" stroke-linejoin="round"/>
		<path d="M16.5744 9.78272C16.6082 10.0622 16.6251 10.3435 16.625 10.625C16.625 12.0157 16.2071 13.3751 15.4242 14.5314C14.6413 15.6876 13.5285 16.5889 12.2266 17.121C10.9247 17.6532 9.4921 17.7924 8.10999 17.5211C6.72787 17.2498 5.45832 16.5802 4.46187 15.5968C3.46542 14.6135 2.78683 13.3607 2.51191 11.9967C2.23699 10.6328 2.37809 9.21905 2.91736 7.93426C3.45664 6.64946 4.36987 5.55133 5.54157 4.77873C6.71327 4.00613 8.09081 3.59375 9.5 3.59375C9.72293 3.59375 9.94332 3.60371 10.1612 3.62362" stroke="currentColor" stroke-width="1.5" stroke-linecap="round" stroke-linejoin="round"/>
	</symbol>

	<symbol id="chats" width="19" height="19" viewBox="0 0 19 19" fill="none" xmlns="http://www.w3.org/2000/svg">
		<path d="M5.31279 10.6875L2.375 13.0625V3.56253C2.375 3.40506 2.43756 3.25404 2.54891 3.14269C2.66026 3.03134 2.81128 2.96878 2.96875 2.96878H12.4688C12.6262 2.96878 12.7772 3.03134 12.8886 3.14269C12.9999 3.25404 13.0625 3.40506 13.0625 3.56253V10.0938C13.0625 10.2513 12.9999 10.4023 12.8886 10.5136C12.7772 10.625 12.6262 10.6875 12.4688 10.6875H5.31279Z" stroke="currentColor" stroke-width="1.5" stroke-linecap="round" stroke-linejoin="round"/>
		<path d="M5.9375 10.6875V13.6563C5.9375 13.8138 6.00006 13.9648 6.11141 14.0761C6.22276 14.1875 6.37378 14.25 6.53125 14.25H13.6872L16.625 16.625V7.12503C16.625 6.96756 16.5624 6.81654 16.4511 6.70519C16.3397 6.59384 16.1887 6.53128 16.0312 6.53128H13.0625" stroke="currentColor" stroke-width="1.5" stroke-linecap="round" stroke-linejoin="round"/>
	</symbol>

	<symbol id="check-circle" width="24" height="24" viewBox="0 0 24 24" fill="none" xmlns="http://www.w3.org/2000/svg">
		<path fill-rule="evenodd" clip-rule="evenodd" d="M2 12C2 6.47715 6.47715 2 12 2C17.5228 2 22 6.47715 22 12C22 17.5228 17.5228 22 12 22C6.47715 22 2 17.5228 2 12ZM12 4C7.58172 4 4 7.58172 4 12C4 16.4183 7.58172 20 12 20C16.4183 20 20 16.4183 20 12C20 7.58172 16.4183 4 12 4Z" fill="currentColor"/>
		<path fill-rule="evenodd" clip-rule="evenodd" d="M16.6402 8.23177C17.0645 8.58534 17.1218 9.2159 16.7682 9.64018L11.7682 15.6402C11.5937 15.8497 11.3411 15.9788 11.0691 15.9976C10.797 16.0164 10.5291 15.9234 10.3273 15.7399L7.32733 13.0127C6.91868 12.6412 6.88856 12.0087 7.26007 11.6C7.63157 11.1914 8.26402 11.1613 8.67268 11.5328L10.9002 13.5578L15.2318 8.35981C15.5854 7.93553 16.2159 7.87821 16.6402 8.23177Z" fill="currentColor"/>
	</symbol>

	<symbol id="remove" width="22" height="22" viewBox="0 0 22 22" fill="none" xmlns="http://www.w3.org/2000/svg">
		<path d="M4.28572 18.2143C4.28572 19.3929 5.25001 20.3571 6.42858 20.3571H15C16.1786 20.3571 17.1429 19.3929 17.1429 18.2143V5.35714H4.28572V18.2143ZM7.68215 11.3464C7.48182 11.1461 7.36927 10.8744 7.36927 10.5911C7.36927 10.3078 7.48182 10.036 7.68215 9.83571C7.88248 9.63538 8.15419 9.52283 8.43751 9.52283C8.72082 9.52283 8.99253 9.63538 9.19287 9.83571L10.7143 11.3464L12.225 9.83571C12.4253 9.63538 12.6971 9.52283 12.9804 9.52283C13.2637 9.52283 13.5354 9.63538 13.7357 9.83571C13.9361 10.036 14.0486 10.3078 14.0486 10.5911C14.0486 10.8744 13.9361 11.1461 13.7357 11.3464L12.225 12.8571L13.7357 14.3679C13.8349 14.4671 13.9136 14.5848 13.9673 14.7144C14.021 14.844 14.0486 14.9829 14.0486 15.1232C14.0486 15.2635 14.021 15.4024 13.9673 15.532C13.9136 15.6616 13.8349 15.7794 13.7357 15.8786C13.6365 15.9778 13.5188 16.0565 13.3892 16.1101C13.2596 16.1638 13.1206 16.1914 12.9804 16.1914C12.8401 16.1914 12.7012 16.1638 12.5716 16.1101C12.442 16.0565 12.3242 15.9778 12.225 15.8786L10.7143 14.3679L9.20358 15.8786C9.10439 15.9778 8.98662 16.0565 8.85702 16.1101C8.72742 16.1638 8.58851 16.1914 8.44822 16.1914C8.30794 16.1914 8.16903 16.1638 8.03943 16.1101C7.90982 16.0565 7.79206 15.9778 7.69287 15.8786C7.59367 15.7794 7.51499 15.6616 7.4613 15.532C7.40762 15.4024 7.37999 15.2635 7.37999 15.1232C7.37999 14.9829 7.40762 14.844 7.4613 14.7144C7.51499 14.5848 7.59367 14.4671 7.69287 14.3679L9.20358 12.8571L7.68215 11.3464ZM17.1429 2.14286H14.4643L13.7036 1.38214C13.5107 1.18928 13.2322 1.07143 12.9536 1.07143H8.47501C8.19644 1.07143 7.91787 1.18928 7.72501 1.38214L6.96429 2.14286H4.28572C3.69644 2.14286 3.21429 2.625 3.21429 3.21428C3.21429 3.80357 3.69644 4.28571 4.28572 4.28571H17.1429C17.7322 4.28571 18.2143 3.80357 18.2143 3.21428C18.2143 2.625 17.7322 2.14286 17.1429 2.14286Z" fill="currentColor"/>
	</symbol>

	<symbol id="cross" width="10" height="10" viewBox="0 0 10 10" fill="none" xmlns="http://www.w3.org/2000/svg">
		<path d="M9.15054 0.806699C9.02599 0.681863 8.85689 0.611708 8.68054 0.611708C8.5042 0.611708 8.3351 0.681863 8.21054 0.806699L4.95054 4.06003L1.69054 0.800032C1.56599 0.675197 1.39689 0.605042 1.22054 0.605042C1.0442 0.605042 0.875096 0.675197 0.750542 0.800032C0.490542 1.06003 0.490542 1.48003 0.750542 1.74003L4.01054 5.00003L0.750542 8.26003C0.490542 8.52003 0.490542 8.94003 0.750542 9.20003C1.01054 9.46003 1.43054 9.46003 1.69054 9.20003L4.95054 5.94003L8.21054 9.20003C8.47054 9.46003 8.89054 9.46003 9.15054 9.20003C9.41054 8.94003 9.41054 8.52003 9.15054 8.26003L5.89054 5.00003L9.15054 1.74003C9.40387 1.4867 9.40387 1.06003 9.15054 0.806699Z" fill="currentColor"/>
	</symbol>

	<symbol id="cross-circle" width="24" height="24" viewBox="0 0 24 24" fill="none" xmlns="http://www.w3.org/2000/svg">
		<circle cx="12" cy="12" r="9" stroke-width="2" stroke="currentColor"/>
		<line x1="8" y1="8" x2="16" y2="16" stroke-width="2" stroke="currentColor"/>
		<line x1="8" y1="16" x2="16" y2="8" stroke-width="2" stroke="currentColor"/>
	</symbol>

	<symbol id="gear" width="15" height="15" viewBox="0 0 15 15" fill="none" xmlns="http://www.w3.org/2000/svg">
		<path d="M7.58846 10.1696C6.95304 10.1696 6.34365 9.91721 5.89435 9.46791C5.44504 9.0186 5.19262 8.40921 5.19262 7.7738C5.19262 7.13838 5.44504 6.52899 5.89435 6.07969C6.34365 5.63038 6.95304 5.37796 7.58846 5.37796C8.22387 5.37796 8.83326 5.63038 9.28257 6.07969C9.73187 6.52899 9.98429 7.13838 9.98429 7.7738C9.98429 8.40921 9.73187 9.0186 9.28257 9.46791C8.83326 9.91721 8.22387 10.1696 7.58846 10.1696ZM12.6745 8.43779C12.7018 8.21874 12.7224 7.99969 12.7224 7.7738C12.7224 7.5479 12.7018 7.32201 12.6745 7.08927L14.1188 5.9735C14.2489 5.87082 14.2831 5.686 14.201 5.5354L12.8319 3.16695C12.7498 3.01636 12.5649 2.95475 12.4143 3.01636L10.7099 3.70088C10.3539 3.43392 9.98429 3.20118 9.55304 3.03005L9.29977 1.21606C9.27239 1.05177 9.12864 0.928558 8.9575 0.928558H6.21941C6.04828 0.928558 5.90453 1.05177 5.87715 1.21606L5.62387 3.03005C5.19262 3.20118 4.82298 3.43392 4.46703 3.70088L2.76256 3.01636C2.61197 2.95475 2.42715 3.01636 2.345 3.16695L0.975956 5.5354C0.886968 5.686 0.92804 5.87082 1.0581 5.9735L2.50244 7.08927C2.47506 7.32201 2.45453 7.5479 2.45453 7.7738C2.45453 7.99969 2.47506 8.21874 2.50244 8.43779L1.0581 9.57409C0.92804 9.67677 0.886968 9.8616 0.975956 10.0122L2.345 12.3806C2.42715 12.5312 2.61197 12.586 2.76256 12.5312L4.46703 11.8399C4.82298 12.1137 5.19262 12.3464 5.62387 12.5175L5.87715 14.3315C5.90453 14.4958 6.04828 14.619 6.21941 14.619H8.9575C9.12864 14.619 9.27239 14.4958 9.29977 14.3315L9.55304 12.5175C9.98429 12.3396 10.3539 12.1137 10.7099 11.8399L12.4143 12.5312C12.5649 12.586 12.7498 12.5312 12.8319 12.3806L14.201 10.0122C14.2831 9.8616 14.2489 9.67677 14.1188 9.57409L12.6745 8.43779Z" fill="currentColor"/>
	</symbol>

	<symbol id="prohibit" width="17" height="17" viewBox="0 0 17 17" fill="none" xmlns="http://www.w3.org/2000/svg">
		<path d="M8.49995 14.6607C11.9024 14.6607 14.6607 11.9024 14.6607 8.49998C14.6607 5.09751 11.9024 2.33926 8.49995 2.33926C5.09748 2.33926 2.33923 5.09751 2.33923 8.49998C2.33923 11.9024 5.09748 14.6607 8.49995 14.6607Z" stroke="currentColor" stroke-width="1.5" stroke-miterlimit="10"/>
		<path d="M4.14368 4.14371L12.8562 12.8563" stroke="currentColor" stroke-width="1.5" stroke-linecap="round" stroke-linejoin="round"/>
	</symbol>

	<symbol id="envelope" width="17" height="17" viewBox="0 0 17 17" fill="none" xmlns="http://www.w3.org/2000/svg">
		<path d="M14.875 3.71875L8.5 9.5625L2.125 3.71875" stroke="currentColor" stroke-width="1.2" stroke-linecap="round" stroke-linejoin="round"/>
		<path d="M2.125 3.71875H14.875V12.75C14.875 12.8909 14.819 13.026 14.7194 13.1257C14.6198 13.2253 14.4846 13.2812 14.3438 13.2812H2.65625C2.51535 13.2812 2.38023 13.2253 2.2806 13.1257C2.18097 13.026 2.125 12.8909 2.125 12.75V3.71875Z" stroke="currentColor" stroke-width="1.2" stroke-linecap="round" stroke-linejoin="round"/>
		<path d="M7.34091 8.5L2.28882 13.1311" stroke="currentColor" stroke-width="1.2" stroke-linecap="round" stroke-linejoin="round"/>
		<path d="M14.7114 13.1311L9.65918 8.49997" stroke="currentColor" stroke-width="1.2" stroke-linecap="round" stroke-linejoin="round"/>
	</symbol>

	<symbol id="chalkboard-teacher" width="22" height="22" viewBox="0 0 22 22" fill="none" xmlns="http://www.w3.org/2000/svg">
		<path d="M9.11691 15.0273C10.5997 15.0273 11.8017 13.8253 11.8017 12.3425C11.8017 10.8597 10.5997 9.65771 9.11691 9.65771C7.63415 9.65771 6.43213 10.8597 6.43213 12.3425C6.43213 13.8253 7.63415 15.0273 9.11691 15.0273Z" stroke="currentColor" stroke-width="1.2" stroke-linecap="round" stroke-linejoin="round"/>
		<path d="M4.87075 17.7119C5.25208 16.9086 5.85347 16.2299 6.60508 15.7547C7.35669 15.2795 8.22769 15.0272 9.11693 15.0272C10.0062 15.0272 10.8772 15.2795 11.6288 15.7547C12.3804 16.2299 12.9818 16.9086 13.3631 17.7119L18.5137 17.712C18.6018 17.712 18.6891 17.6946 18.7705 17.6609C18.852 17.6272 18.9259 17.5777 18.9883 17.5154C19.0506 17.4531 19.1 17.3791 19.1338 17.2977C19.1675 17.2162 19.1849 17.1289 19.1849 17.0408V4.95928C19.1849 4.78127 19.1142 4.61055 18.9883 4.48467C18.8624 4.3588 18.6917 4.28809 18.5137 4.28809H3.74737C3.56936 4.28809 3.39863 4.3588 3.27276 4.48467C3.14689 4.61055 3.07617 4.78127 3.07617 4.95928V17.0409C3.07617 17.129 3.09353 17.2163 3.12726 17.2977C3.161 17.3791 3.21044 17.4531 3.27276 17.5155C3.33509 17.5778 3.40908 17.6272 3.49052 17.6609C3.57195 17.6947 3.65923 17.712 3.74737 17.712L4.87075 17.7119Z" stroke="currentColor" stroke-width="1.2" stroke-linecap="round" stroke-linejoin="round"/>
		<path d="M15.1576 15.0272H16.5V6.9729H5.76086V8.31529" stroke="currentColor" stroke-width="1.2" stroke-linecap="round" stroke-linejoin="round"/>
	</symbol>

	<symbol id="download" width="20" height="20" viewBox="0 0 20 20" fill="none" xmlns="http://www.w3.org/2000/svg">
		<path d="M16.25 3.125H3.75C3.40482 3.125 3.125 3.40482 3.125 3.75V16.25C3.125 16.5952 3.40482 16.875 3.75 16.875H16.25C16.5952 16.875 16.875 16.5952 16.875 16.25V3.75C16.875 3.40482 16.5952 3.125 16.25 3.125Z" stroke="currentColor" stroke-width="1.2" stroke-linecap="round" stroke-linejoin="round"/>
		<path d="M7.34839 9.22339L10 11.875L12.6517 9.22339" stroke="currentColor" stroke-width="1.2" stroke-linecap="round" stroke-linejoin="round"/>
		<path d="M10 5.625V11.875" stroke="currentColor" stroke-width="1.2" stroke-linecap="round" stroke-linejoin="round"/>
		<path d="M3.12451 12.5H5.99063C6.0727 12.5 6.15398 12.5162 6.22981 12.5476C6.30563 12.579 6.37453 12.625 6.43257 12.6831L7.94145 14.1919C7.99949 14.25 8.06839 14.296 8.14422 14.3274C8.22005 14.3588 8.30132 14.375 8.3834 14.375H11.6156C11.6977 14.375 11.779 14.3588 11.8548 14.3274C11.9306 14.296 11.9995 14.25 12.0576 14.1919L13.5665 12.6831C13.6245 12.625 13.6934 12.579 13.7692 12.5476C13.845 12.5162 13.9263 12.5 14.0084 12.5H16.8745" stroke="currentColor" stroke-width="1.2" stroke-linecap="round" stroke-linejoin="round"/>
	</symbol>

	<symbol id="note-pencil" width="20" height="20" viewBox="0 0 20 20" fill="none" xmlns="http://www.w3.org/2000/svg">
		<path d="M10 12.5H7.5V10L15 2.5L17.5 5L10 12.5Z" stroke="currentColor" stroke-width="1.5" stroke-linecap="round" stroke-linejoin="round"/>
		<path d="M13.125 4.375L15.625 6.875" stroke="currentColor" stroke-width="1.5" stroke-linecap="round" stroke-linejoin="round"/>
		<path d="M16.875 9.375V16.25C16.875 16.4158 16.8092 16.5747 16.6919 16.6919C16.5747 16.8092 16.4158 16.875 16.25 16.875H3.75C3.58424 16.875 3.42527 16.8092 3.30806 16.6919C3.19085 16.5747 3.125 16.4158 3.125 16.25V3.75C3.125 3.58424 3.19085 3.42527 3.30806 3.30806C3.42527 3.19085 3.58424 3.125 3.75 3.125H10.625" stroke="currentColor" stroke-width="1.5" stroke-linecap="round" stroke-linejoin="round"/>
	</symbol>

	<symbol id="file-search" width="20" height="20" viewBox="0 0 20 20" fill="none" xmlns="http://www.w3.org/2000/svg">
		<path d="M15.625 17.5H4.37439C4.20863 17.5 4.04966 17.4342 3.93245 17.3169C3.81524 17.1997 3.74939 17.0408 3.74939 16.875V3.125C3.74939 2.95924 3.81524 2.80027 3.93245 2.68306C4.04966 2.56585 4.20863 2.5 4.37439 2.5H11.875L16.25 6.875V16.875C16.25 16.9571 16.2338 17.0383 16.2024 17.1142C16.171 17.19 16.125 17.2589 16.0669 17.3169C16.0089 17.375 15.94 17.421 15.8642 17.4524C15.7883 17.4838 15.7071 17.5 15.625 17.5Z" stroke="currentColor" stroke-width="1.5" stroke-linecap="round" stroke-linejoin="round"/>
		<path d="M11.875 2.5V6.875H16.2506" stroke="currentColor" stroke-width="1.5" stroke-linecap="round" stroke-linejoin="round"/>
		<path d="M11.2339 13.1094L12.4839 14.3594" stroke="currentColor" stroke-width="1.5" stroke-linecap="round" stroke-linejoin="round"/>
		<path d="M9.68701 13.75C10.8951 13.75 11.8745 12.7706 11.8745 11.5625C11.8745 10.3544 10.8951 9.375 9.68701 9.375C8.47889 9.375 7.49951 10.3544 7.49951 11.5625C7.49951 12.7706 8.47889 13.75 9.68701 13.75Z" stroke="currentColor" stroke-width="1.5" stroke-linecap="round" stroke-linejoin="round"/>
	</symbol>
</svg>

